# xmcd
#
# Track frame offsets: 
#        150
#        12302
#        25690
#        34922
#        54172
#        65927
#        79072
#        92835
#        103560
#        114252
#        130710
#        141960
#        154935
#        166785
#        177660
#        192775
#        206487
#        219837
#        232822
#        245787
#        256847
#        269562
#        280662
#        294162
#        307287
#        319777
#        335412
#
# Disc length: 4689 seconds
#
# Revision: 5
# Processed by: cddbd v1.5.2PL0 Copyright (c) Steve Scherf et al.
# Submitted via: ExactAudioCopyFreeDBPlugin 1.0
#
DISCID=81124f1b
DTITLE=Tammy Wynette - The Definitive Collection
DYEAR=1999
DGENRE=Country
TTITLE0=Stand By Your Man
TTITLE1=D-I-V-O-R-C-E
TTITLE2=Your Good Girl's Gonna Go Bad
TTITLE3=Every Breath You Take  (with Sting)
TTITLE4=I Don't Wanna Play House
TTITLE5=Kids Say The Darndest Things
TTITLE6=Til I Can Make It On My Own
TTITLE7=Near You (with George Jones)
TTITLE8=Singing My Song
TTITLE9=Sometimes When We Touch (with Mark Gray)
TTITLE10=Good Lovin
TTITLE11=My Elusive Dreams (with David Houston)
TTITLE12=He Loves Me All The Way
TTITLE13=Silver Threads and Golden Needles (with Dolly Parton and Lorett
TTITLE13=a Lynn)
TTITLE14=You And Me
TTITLE15=Golden Ring (with George Jones)
TTITLE16=We're Gonna Hold On (with George Jones)
TTITLE17=My Man
TTITLE18=Reach Out Your Hand
TTITLE19=Run Woman Run
TTITLE20=Take Me To Your World
TTITLE21=The Ways To Love A Man
TTITLE22=Woman To Woman
TTITLE23=Womanhood
TTITLE24=Greener Than The Grass We Laid On
TTITLE25=Easy Come, Easy Go
TTITLE26=Justified and Ancient (with KLF)
EXTD=YEAR: 1999
EXTT0=
EXTT1=
EXTT2=
EXTT3=
EXTT4=
EXTT5=
EXTT6=
EXTT7=
EXTT8=
EXTT9=
EXTT10=
EXTT11=
EXTT12=
EXTT13=
EXTT14=
EXTT15=
EXTT16=
EXTT17=
EXTT18=
EXTT19=
EXTT20=
EXTT21=
EXTT22=
EXTT23=
EXTT24=
EXTT25=
EXTT26=
PLAYORDER=
